<svg width="463" height="319" viewBox="0 0 463 319" fill="none" xmlns="http://www.w3.org/2000/svg">
<g clip-path="url(#clip0_3573_101549)">
<path d="M192.873 319.001H39.5329C38.7801 319 38.0584 318.7 37.5261 318.167C36.9938 317.634 36.6943 316.911 36.6934 316.157V184.808C36.6943 184.054 36.9938 183.331 37.5261 182.798C38.0584 182.265 38.7801 181.965 39.5329 181.964H192.873C193.626 181.965 194.348 182.265 194.88 182.798C195.412 183.331 195.712 184.054 195.713 184.808V316.156C195.712 316.91 195.413 317.633 194.88 318.167C194.348 318.7 193.626 319 192.873 319.001V319.001ZM39.5329 183.099C39.0817 183.1 38.6493 183.28 38.3303 183.6C38.0113 183.919 37.8316 184.353 37.8306 184.804V316.156C37.8316 316.608 38.0113 317.041 38.3303 317.361C38.6493 317.68 39.0817 317.86 39.5329 317.861H192.873C193.325 317.86 193.757 317.681 194.076 317.361C194.395 317.041 194.575 316.608 194.576 316.156V184.808C194.575 184.356 194.395 183.923 194.076 183.604C193.757 183.284 193.325 183.104 192.873 183.103L39.5329 183.099Z" fill="#ECECEC"/>
<path d="M62.067 222.173C68.4553 222.173 73.634 216.986 73.634 210.587C73.634 204.187 68.4553 199 62.067 199C55.6787 199 50.5 204.187 50.5 210.587C50.5 216.986 55.6787 222.173 62.067 222.173Z" fill="#ECECEC"/>
<path d="M61.0414 215.861C60.7404 215.862 60.4474 215.768 60.2065 215.593L60.1916 215.582L57.0473 213.249C56.9017 213.141 56.7795 213.006 56.6876 212.852C56.5958 212.698 56.5362 212.528 56.5121 212.352C56.488 212.175 56.5 211.996 56.5473 211.825C56.5947 211.653 56.6765 211.492 56.7881 211.351C56.8996 211.21 57.0388 211.091 57.1976 211.002C57.3564 210.913 57.5317 210.855 57.7136 210.832C57.8955 210.809 58.0803 210.82 58.2575 210.866C58.4347 210.912 58.6009 210.991 58.7465 211.099L60.7831 212.613L65.596 206.53C65.7076 206.389 65.8468 206.271 66.0056 206.182C66.1645 206.093 66.3398 206.035 66.5217 206.012C66.7036 205.988 66.8884 206 67.0656 206.046C67.2428 206.092 67.409 206.171 67.5545 206.279L67.5246 206.319L67.5553 206.28C67.849 206.499 68.0411 206.821 68.0896 207.177C68.138 207.533 68.0389 207.893 67.8138 208.178L62.1528 215.333C62.0219 215.498 61.8535 215.631 61.6608 215.723C61.468 215.815 61.2561 215.862 61.0414 215.861Z" fill="#F25959"/>
<path d="M88.4277 202.862C87.9165 202.862 87.4261 203.066 87.0646 203.428C86.7031 203.79 86.5 204.281 86.5 204.793C86.5 205.305 86.7031 205.797 87.0646 206.159C87.4261 206.521 87.9165 206.724 88.4277 206.724H179.313C179.824 206.724 180.314 206.521 180.676 206.159C181.037 205.797 181.241 205.305 181.241 204.793C181.241 204.281 181.037 203.79 180.676 203.428C180.314 203.066 179.824 202.862 179.313 202.862H88.4277Z" fill="#ECECEC"/>
<path d="M88.4277 214.225C87.9165 214.225 87.4261 214.428 87.0646 214.79C86.7031 215.152 86.5 215.643 86.5 216.156C86.5 216.668 86.7031 217.159 87.0646 217.521C87.4261 217.883 87.9165 218.087 88.4277 218.087H179.313C179.824 218.087 180.314 217.883 180.676 217.521C181.037 217.159 181.241 216.668 181.241 216.156C181.241 215.643 181.037 215.152 180.676 214.79C180.314 214.428 179.824 214.225 179.313 214.225H88.4277Z" fill="#ECECEC"/>
<path d="M88.4277 225.587C87.9165 225.587 87.4261 225.79 87.0646 226.152C86.7031 226.515 86.5 227.006 86.5 227.518C86.5 228.03 86.7031 228.521 87.0646 228.883C87.4261 229.245 87.9165 229.449 88.4277 229.449H179.313C179.824 229.449 180.314 229.245 180.676 228.883C181.037 228.521 181.241 228.03 181.241 227.518C181.241 227.006 181.037 226.515 180.676 226.152C180.314 225.79 179.824 225.587 179.313 225.587H88.4277Z" fill="#ECECEC"/>
<path d="M88.4277 236.949C87.9165 236.949 87.4261 237.153 87.0646 237.515C86.7031 237.877 86.5 238.368 86.5 238.88C86.5 239.392 86.7031 239.884 87.0646 240.246C87.4261 240.608 87.9165 240.811 88.4277 240.811H179.313C179.824 240.811 180.314 240.608 180.676 240.246C181.037 239.884 181.241 239.392 181.241 238.88C181.241 238.368 181.037 237.877 180.676 237.515C180.314 237.153 179.824 236.949 179.313 236.949H88.4277Z" fill="#ECECEC"/>
<path d="M88.4277 248.312C87.9165 248.312 87.4261 248.515 87.0646 248.877C86.7031 249.239 86.5 249.73 86.5 250.243C86.5 250.755 86.7031 251.246 87.0646 251.608C87.4261 251.97 87.9165 252.174 88.4277 252.174H179.313C179.824 252.174 180.314 251.97 180.676 251.608C181.037 251.246 181.241 250.755 181.241 250.243C181.241 249.73 181.037 249.239 180.676 248.877C180.314 248.515 179.824 248.312 179.313 248.312H88.4277Z" fill="#ECECEC"/>
<path d="M88.4277 259.674C87.9165 259.674 87.4261 259.877 87.0646 260.239C86.7031 260.602 86.5 261.093 86.5 261.605C86.5 262.117 86.7031 262.608 87.0646 262.97C87.4261 263.332 87.9165 263.536 88.4277 263.536H179.313C179.824 263.536 180.314 263.332 180.676 262.97C181.037 262.608 181.241 262.117 181.241 261.605C181.241 261.093 181.037 260.602 180.676 260.239C180.314 259.877 179.824 259.674 179.313 259.674H88.4277Z" fill="#ECECEC"/>
<path d="M88.4277 271.036C87.9165 271.036 87.4261 271.24 87.0646 271.602C86.7031 271.964 86.5 272.455 86.5 272.967C86.5 273.479 86.7031 273.97 87.0646 274.333C87.4261 274.695 87.9165 274.898 88.4277 274.898H179.313C179.824 274.898 180.314 274.695 180.676 274.333C181.037 273.97 181.241 273.479 181.241 272.967C181.241 272.455 181.037 271.964 180.676 271.602C180.314 271.24 179.824 271.036 179.313 271.036H88.4277Z" fill="#ECECEC"/>
<path d="M88.4277 282.398C87.9165 282.398 87.4261 282.602 87.0646 282.964C86.7031 283.326 86.5 283.817 86.5 284.329C86.5 284.842 86.7031 285.333 87.0646 285.695C87.4261 286.057 87.9165 286.26 88.4277 286.26H179.313C179.824 286.26 180.314 286.057 180.676 285.695C181.037 285.333 181.241 284.842 181.241 284.329C181.241 283.817 181.037 283.326 180.676 282.964C180.314 282.602 179.824 282.398 179.313 282.398H88.4277Z" fill="#ECECEC"/>
<path d="M88.4277 293.761C87.9165 293.761 87.4261 293.964 87.0646 294.326C86.7031 294.688 86.5 295.18 86.5 295.692C86.5 296.204 86.7031 296.695 87.0646 297.057C87.4261 297.419 87.9165 297.623 88.4277 297.623H127.536C128.047 297.623 128.538 297.419 128.899 297.057C129.261 296.695 129.464 296.204 129.464 295.692C129.464 295.18 129.261 294.688 128.899 294.326C128.538 293.964 128.047 293.761 127.536 293.761H88.4277Z" fill="#ECECEC"/>
<path d="M463 317.709H0V318.775H463V317.709Z" fill="#ECECEC"/>
<path d="M401.926 317.71H248.586C247.833 317.709 247.111 317.409 246.579 316.875C246.047 316.342 245.747 315.619 245.746 314.865V276.763C245.747 276.009 246.047 275.286 246.579 274.753C247.111 274.22 247.833 273.92 248.586 273.919H401.926C402.679 273.92 403.401 274.22 403.933 274.753C404.465 275.286 404.765 276.009 404.766 276.763V314.865C404.765 315.619 404.465 316.342 403.933 316.875C403.401 317.409 402.679 317.709 401.926 317.71ZM248.586 275.054C248.134 275.055 247.702 275.235 247.383 275.555C247.064 275.874 246.884 276.308 246.883 276.759V314.861C246.884 315.313 247.064 315.746 247.383 316.066C247.702 316.385 248.134 316.565 248.586 316.566H401.926C402.377 316.565 402.81 316.385 403.129 316.066C403.448 315.746 403.628 315.313 403.628 314.861V276.763C403.628 276.311 403.448 275.878 403.129 275.558C402.81 275.239 402.377 275.059 401.926 275.058L248.586 275.054Z" fill="#ECECEC"/>
<path d="M272.411 305.939C278.799 305.939 283.978 300.751 283.978 294.352C283.978 287.953 278.799 282.766 272.411 282.766C266.022 282.766 260.844 287.953 260.844 294.352C260.844 300.751 266.022 305.939 272.411 305.939Z" fill="#ECECEC"/>
<path d="M299.127 286.628C298.616 286.628 298.125 286.831 297.764 287.194C297.402 287.556 297.199 288.047 297.199 288.559C297.199 289.071 297.402 289.562 297.764 289.924C298.125 290.287 298.616 290.49 299.127 290.49H390.012C390.523 290.49 391.014 290.287 391.375 289.924C391.737 289.562 391.94 289.071 391.94 288.559C391.94 288.047 391.737 287.556 391.375 287.194C391.014 286.831 390.523 286.628 390.012 286.628H299.127Z" fill="#ECECEC"/>
<path d="M299.127 298.215C298.616 298.215 298.125 298.418 297.764 298.78C297.402 299.143 297.199 299.634 297.199 300.146C297.199 300.658 297.402 301.149 297.764 301.511C298.125 301.873 298.616 302.077 299.127 302.077H338.235C338.746 302.077 339.237 301.873 339.598 301.511C339.96 301.149 340.163 300.658 340.163 300.146C340.163 299.634 339.96 299.143 339.598 298.78C339.237 298.418 338.746 298.215 338.235 298.215H299.127Z" fill="#ECECEC"/>
<path d="M374.987 273.024L234.817 210.482C234.129 210.174 233.591 209.606 233.321 208.902C233.051 208.198 233.071 207.415 233.376 206.726L248.842 171.925C249.148 171.237 249.716 170.698 250.419 170.428C251.122 170.159 251.903 170.179 252.592 170.485L392.762 233.027C393.45 233.335 393.988 233.903 394.258 234.607C394.528 235.312 394.509 236.094 394.203 236.783L378.738 271.584C378.431 272.272 377.864 272.81 377.161 273.08C376.458 273.35 375.676 273.33 374.987 273.024ZM252.131 171.522C251.718 171.339 251.25 171.327 250.828 171.489C250.407 171.651 250.067 171.973 249.883 172.385L234.417 207.186C234.235 207.599 234.223 208.068 234.385 208.49C234.547 208.912 234.869 209.253 235.281 209.438L375.451 271.979C375.864 272.163 376.333 272.175 376.754 272.013C377.175 271.851 377.515 271.529 377.7 271.116L393.164 236.319C393.346 235.906 393.358 235.437 393.196 235.015C393.034 234.593 392.712 234.253 392.3 234.068L252.131 171.522Z" fill="#ECECEC"/>
<path d="M261.381 209.461C267.222 212.067 274.063 209.44 276.661 203.594C279.259 197.747 276.63 190.894 270.789 188.288C264.948 185.681 258.107 188.308 255.509 194.155C252.911 200.001 255.54 206.854 261.381 209.461Z" fill="#ECECEC"/>
<path d="M293.639 202.705C293.172 202.496 292.641 202.482 292.163 202.666C291.686 202.849 291.301 203.214 291.093 203.682C290.885 204.15 290.872 204.681 291.055 205.159C291.239 205.637 291.604 206.023 292.071 206.231L375.142 243.287C375.609 243.496 376.14 243.51 376.618 243.327C377.095 243.143 377.48 242.778 377.688 242.31C377.896 241.843 377.909 241.311 377.726 240.833C377.542 240.355 377.177 239.97 376.71 239.761L293.639 202.705Z" fill="#ECECEC"/>
<path d="M288.93 213.296C288.463 213.087 287.932 213.073 287.454 213.256C286.977 213.44 286.592 213.805 286.384 214.273C286.176 214.741 286.163 215.272 286.346 215.75C286.53 216.228 286.895 216.614 287.363 216.822L323.109 232.769C323.576 232.978 324.107 232.992 324.584 232.809C325.062 232.625 325.447 232.26 325.655 231.792C325.863 231.324 325.876 230.793 325.693 230.315C325.509 229.837 325.144 229.451 324.676 229.243L288.93 213.296Z" fill="#ECECEC"/>
<path d="M259.779 167.133L107.045 180.513C106.295 180.578 105.551 180.342 104.974 179.858C104.398 179.374 104.037 178.68 103.97 177.929L100.667 139.995C100.602 139.244 100.838 138.498 101.322 137.921C101.806 137.344 102.498 136.982 103.248 136.915L255.981 123.535C256.731 123.471 257.476 123.706 258.052 124.191C258.629 124.675 258.99 125.369 259.056 126.119L262.36 164.053C262.425 164.804 262.189 165.55 261.705 166.128C261.221 166.705 260.528 167.067 259.779 167.133ZM103.347 138.046C102.897 138.086 102.482 138.303 102.192 138.649C101.902 138.995 101.761 139.442 101.799 139.892L105.103 177.826C105.143 178.276 105.36 178.691 105.705 178.982C106.05 179.272 106.497 179.413 106.946 179.375L259.679 165.995C260.129 165.955 260.544 165.738 260.834 165.392C261.124 165.046 261.265 164.599 261.227 164.149L257.923 126.219C257.883 125.769 257.667 125.353 257.321 125.063C256.976 124.772 256.53 124.631 256.08 124.67L103.347 138.046Z" fill="#ECECEC"/>
<path d="M129.758 166.711C136.122 166.154 140.831 160.536 140.276 154.163C139.721 147.79 134.112 143.076 127.749 143.634C121.385 144.192 116.676 149.81 117.231 156.182C117.786 162.555 123.395 167.269 129.758 166.711Z" fill="#ECECEC"/>
<path d="M154.69 145.155C154.18 145.2 153.71 145.445 153.381 145.837C153.052 146.228 152.893 146.735 152.937 147.244C152.981 147.754 153.226 148.225 153.618 148.554C154.009 148.882 154.515 149.042 155.024 148.997L245.546 141.073C246.056 141.028 246.526 140.783 246.855 140.391C247.184 140 247.343 139.493 247.299 138.984C247.255 138.474 247.01 138.003 246.618 137.674C246.227 137.346 245.721 137.186 245.212 137.231L154.69 145.155Z" fill="#ECECEC"/>
<path d="M155.697 156.695C155.188 156.74 154.717 156.985 154.389 157.377C154.06 157.769 153.9 158.275 153.945 158.785C153.989 159.295 154.234 159.766 154.626 160.095C155.017 160.423 155.523 160.583 156.032 160.539L194.985 157.128C195.494 157.083 195.964 156.838 196.293 156.446C196.622 156.054 196.782 155.547 196.737 155.038C196.693 154.528 196.448 154.057 196.056 153.728C195.665 153.399 195.159 153.24 194.65 153.284L155.697 156.695Z" fill="#ECECEC"/>
<path d="M230.847 44.3391C240.542 44.3391 248.401 36.4667 248.401 26.7555C248.401 17.0443 240.542 9.17188 230.847 9.17188C221.152 9.17188 213.293 17.0443 213.293 26.7555C213.293 36.4667 221.152 44.3391 230.847 44.3391Z" fill="#141414"/>
<path d="M231.202 45.8918C238.417 45.8918 244.267 40.0325 244.267 32.8048C244.267 25.577 238.417 19.7178 231.202 19.7178C223.986 19.7178 218.137 25.577 218.137 32.8048C218.137 40.0325 223.986 45.8918 231.202 45.8918Z" fill="#FFCECE"/>
<path d="M251.059 51.7988C251.059 51.7988 227.122 47.5361 211.695 52.8645L216.217 88.831L215.153 94.6922L247.069 93.6266L244.942 87.7654L251.059 51.7988Z" fill="#FFCECE"/>
<path d="M234.426 90.6114C228.915 90.5457 223.411 90.1964 217.935 89.565C216.811 89.4411 215.774 88.8991 215.029 88.0461C214.284 87.1932 213.886 86.0914 213.913 84.9586L214.302 68.1385L214.347 68.073C218.972 61.363 216.719 56.4619 214.985 53.8233C214.62 53.266 214.425 52.6136 214.426 51.9467C214.16 51.5737 214.1 52.1625 214.266 51.7447C214.348 51.5374 214.48 51.3539 214.651 51.2108C214.821 51.0676 215.025 50.9695 215.243 50.9252L217.883 50.3966C218.2 50.3333 218.529 50.3876 218.809 50.5495C219.089 50.7114 219.3 50.9698 219.404 51.2764C220.291 53.9283 223.749 62.4611 231.673 62.459C238.293 62.459 240.764 53.0752 240.911 50.9066C240.935 50.5706 241.086 50.2562 241.332 50.0266C241.578 49.7971 241.901 49.6694 242.238 49.6693H245.536C245.744 49.6644 245.951 49.7066 246.142 49.7927C246.332 49.8789 246.5 50.0068 246.635 50.167C246.799 50.3709 246.899 50.6191 246.922 50.8801C246.945 51.1411 246.89 51.4031 246.764 51.6328C243 58.565 248.501 69.5362 248.557 69.6427L248.592 69.712L247.04 85.8532C246.946 86.8001 246.558 87.6938 245.931 88.4084C245.304 89.1231 244.468 89.6227 243.543 89.8372C241.143 90.4015 237.9 90.6114 234.426 90.6114Z" fill="#D51010"/>
<path d="M204.048 128.064C200.474 128.064 197.201 127.67 194.601 126.738C191.51 125.63 189.57 123.839 188.833 121.409C188.484 120.377 188.38 119.278 188.528 118.199C188.677 117.119 189.073 116.089 189.687 115.19C194.259 108.332 210.125 106.398 212.253 106.169L213.381 96.7555C213.515 95.6691 214.035 94.6675 214.847 93.9348C215.659 93.202 216.707 92.7872 217.8 92.7667L244.52 92.349C245.594 92.323 246.641 92.6841 247.47 93.3664C248.3 94.0488 248.858 95.007 249.042 96.0666L250.56 104.432L233.039 112.944L235.688 120.375L235.515 120.49C230.387 123.914 215.64 128.063 204.048 128.064Z" fill="#141414"/>
<path d="M248.135 103.218C248.135 103.218 272.604 100.021 271.008 112.809C269.412 125.597 250.794 134.655 222.602 112.809L225.793 106.415C225.793 106.415 241.751 110.677 248.135 107.48V103.218Z" fill="#141414"/>
<path d="M226.326 108.013C226.326 108.013 226.326 101.619 221.006 102.152C215.687 102.684 206.112 103.217 206.112 103.217C206.112 103.217 202.92 105.349 207.176 106.414C211.431 107.48 224.198 112.808 224.198 112.808L226.326 108.013Z" fill="#FFCECE"/>
<path d="M235.367 106.947C235.367 106.947 235.367 100.553 240.687 101.086C246.006 101.619 255.581 102.152 255.581 102.152C255.581 102.152 258.773 104.283 254.517 105.349C250.261 106.415 237.495 111.743 237.495 111.743L235.367 106.947Z" fill="#FFCECE"/>
<path d="M267.243 105.736L259.306 78.1737C259.306 78.1737 257.71 68.5826 256.115 59.5244C254.519 50.4662 248.667 51.5318 248.667 51.5318L247.604 52.0647V66.4513L248.667 79.7722L259.288 109.025C258.975 110.039 258.957 111.122 259.236 112.146C259.514 113.171 260.078 114.094 260.861 114.81C261.644 115.525 262.615 116.002 263.659 116.186C264.702 116.369 265.777 116.252 266.757 115.846C267.736 115.441 268.58 114.765 269.191 113.897C269.801 113.029 270.152 112.005 270.203 110.945C270.254 109.884 270.003 108.831 269.479 107.908C268.955 106.986 268.179 106.231 267.243 105.734V105.736Z" fill="#FFCECE"/>
<path d="M213.558 52.5982C213.558 52.5982 207.707 51.5326 206.111 60.5908C204.515 69.649 202.919 79.2401 202.919 79.2401L194.982 106.802C194.046 107.3 193.271 108.054 192.746 108.977C192.222 109.9 191.971 110.953 192.022 112.013C192.073 113.074 192.424 114.098 193.035 114.966C193.645 115.834 194.489 116.51 195.469 116.915C196.448 117.32 197.523 117.438 198.567 117.254C199.611 117.071 200.581 116.593 201.364 115.878C202.147 115.163 202.711 114.239 202.99 113.215C203.269 112.19 203.25 111.108 202.938 110.093L213.558 80.8407L214.622 67.5198V54.3225C214.622 53.9645 214.522 53.6135 214.334 53.309C214.147 53.0045 213.878 52.7583 213.558 52.5982Z" fill="#FFCECE"/>
<path d="M218.27 24.7658C223.372 27.8858 229.124 29.7843 235.079 30.3137L233.307 28.1872C234.597 28.6647 235.955 28.9344 237.329 28.9864C238.017 29.0064 238.7 28.8646 239.324 28.5722C239.947 28.2799 240.494 27.8453 240.919 27.3032C241.267 26.7403 241.474 26.1015 241.521 25.4414C241.569 24.7812 241.457 24.1193 241.194 23.512C240.654 22.3008 239.814 21.2481 238.753 20.4541C236.872 18.964 234.653 17.9631 232.293 17.5406C229.932 17.118 227.504 17.287 225.225 18.0323C223.661 18.5 222.26 19.3996 221.182 20.6283C220.653 21.247 220.286 21.9878 220.113 22.7839C219.94 23.5801 219.967 24.4068 220.191 25.1899" fill="#141414"/>
<path d="M232.498 11.1234C228.378 6.93769 223.391 3.70765 217.89 1.66071C214.358 0.350461 210.514 -0.459436 206.823 0.284938C203.131 1.02931 199.641 3.58853 198.609 7.21608C197.767 10.1829 198.637 13.3778 199.944 16.1709C201.251 18.9641 202.996 21.5526 204.053 24.4512C205.132 27.4076 205.457 30.587 204.998 33.701C204.539 36.8149 203.31 39.7646 201.424 42.2824C199.539 44.8001 197.055 46.8062 194.198 48.1183C191.342 49.4305 188.204 50.0072 185.068 49.7962C188.696 50.2832 192.039 51.9909 195.585 52.8999C199.131 53.809 203.316 53.7471 205.951 51.2028C208.739 48.511 208.794 44.1337 208.659 40.2573L208.058 22.9694C207.956 20.0308 207.869 16.9974 208.927 14.2543C209.985 11.5113 212.499 9.10924 215.435 9.13428C217.66 9.15346 219.629 10.5031 221.414 11.8347C223.198 13.1663 225.084 14.5868 227.303 14.7845C229.521 14.9822 232.049 13.34 231.883 11.117" fill="#141414"/>
<path d="M443.257 293.856C443.045 301.779 441.72 309.633 439.321 317.186C439.268 317.362 439.209 317.534 439.151 317.71H424.463C424.478 317.552 424.494 317.377 424.51 317.186C425.489 305.908 419.894 238.085 413.143 226.347C413.734 227.299 444.396 258.021 443.257 293.856Z" fill="#ECECEC"/>
<path d="M442.155 317.186C442.032 317.361 441.904 317.537 441.774 317.709H430.754C430.837 317.56 430.934 317.385 431.046 317.186C432.867 313.895 438.255 304.056 443.256 293.856C448.629 282.894 453.562 271.517 453.146 267.399C453.275 268.328 456.994 296.639 442.155 317.186Z" fill="#ECECEC"/>
<path d="M128.096 160.577C127.797 160.61 127.496 160.549 127.237 160.401L127.221 160.392L123.84 158.418C123.683 158.327 123.547 158.206 123.438 158.063C123.33 157.92 123.252 157.758 123.209 157.585C123.166 157.413 123.158 157.234 123.186 157.058C123.215 156.882 123.278 156.713 123.374 156.56C123.469 156.408 123.594 156.275 123.742 156.169C123.89 156.063 124.058 155.986 124.237 155.943C124.415 155.9 124.6 155.891 124.781 155.917C124.962 155.943 125.136 156.004 125.293 156.096L127.483 157.376L131.599 150.802C131.695 150.65 131.82 150.517 131.968 150.411C132.116 150.305 132.284 150.228 132.462 150.185C132.641 150.142 132.826 150.133 133.007 150.16C133.188 150.186 133.362 150.246 133.518 150.338L133.493 150.38L133.519 150.338C133.835 150.524 134.062 150.823 134.149 151.172C134.236 151.52 134.177 151.889 133.985 152.197L129.143 159.93C129.031 160.108 128.878 160.259 128.697 160.371C128.515 160.483 128.31 160.554 128.096 160.577Z" fill="#F25959"/>
<path d="M271.041 298.861C270.74 298.862 270.447 298.768 270.207 298.593L270.192 298.582L267.047 296.249C266.902 296.141 266.779 296.006 266.688 295.852C266.596 295.698 266.536 295.528 266.512 295.352C266.488 295.175 266.5 294.996 266.547 294.825C266.595 294.653 266.676 294.492 266.788 294.351C266.9 294.21 267.039 294.091 267.198 294.002C267.356 293.913 267.532 293.855 267.714 293.832C267.895 293.809 268.08 293.82 268.258 293.866C268.435 293.912 268.601 293.991 268.747 294.099L270.783 295.613L275.596 289.53C275.708 289.389 275.847 289.271 276.006 289.182C276.164 289.093 276.34 289.035 276.522 289.012C276.704 288.988 276.888 289 277.066 289.046C277.243 289.092 277.409 289.171 277.555 289.279L277.525 289.319L277.555 289.28C277.849 289.499 278.041 289.821 278.09 290.177C278.138 290.533 278.039 290.893 277.814 291.178L272.153 298.333C272.022 298.498 271.853 298.631 271.661 298.723C271.468 298.815 271.256 298.862 271.041 298.861Z" fill="#F25959"/>
<path d="M262.506 202.843C262.24 202.702 262.026 202.48 261.896 202.213L261.888 202.196L260.213 198.657C260.136 198.493 260.091 198.316 260.083 198.137C260.074 197.958 260.102 197.78 260.164 197.614C260.225 197.447 260.32 197.294 260.443 197.165C260.566 197.036 260.714 196.933 260.879 196.861C261.043 196.789 261.222 196.75 261.404 196.746C261.586 196.742 261.768 196.774 261.939 196.839C262.111 196.904 262.268 197.001 262.403 197.125C262.538 197.249 262.647 197.397 262.724 197.561L263.808 199.856L270.919 196.757C271.084 196.685 271.262 196.646 271.444 196.642C271.626 196.639 271.808 196.67 271.98 196.735C272.151 196.8 272.308 196.898 272.443 197.022C272.578 197.146 272.687 197.294 272.764 197.458L272.72 197.479L272.765 197.459C272.921 197.79 272.938 198.165 272.814 198.502C272.689 198.839 272.432 199.11 272.099 199.255L263.735 202.9C263.542 202.984 263.331 203.022 263.118 203.013C262.904 203.003 262.695 202.945 262.506 202.843Z" fill="#F25959"/>
</g>
<defs>
<clipPath id="clip0_3573_101549">
<rect width="463" height="319" fill="white"/>
</clipPath>
</defs>
</svg>
