<svg width="126" height="40" viewBox="0 0 126 40" fill="none" xmlns="http://www.w3.org/2000/svg">
<path d="M0 8C0 3.58172 3.58172 0 8 0H32C36.4183 0 40 3.58172 40 8V32C40 36.4183 36.4183 40 32 40H8C3.58172 40 0 36.4183 0 32V8Z" fill="url(#paint0_linear_19456_1513)"/>
<path d="M22.068 30.2359C20.1053 30.2359 18.6973 29.6706 17.844 28.5399C17.012 27.4093 16.596 25.9266 16.596 24.0919V17.6599H14.42V14.1719L16.852 13.9799L17.396 9.75592H21.3V13.9799H25.108V17.6599H21.3V24.0279C21.3 24.9239 21.4813 25.5746 21.844 25.9799C22.228 26.3639 22.7293 26.5559 23.348 26.5559C23.604 26.5559 23.86 26.5239 24.116 26.4599C24.3933 26.3959 24.6387 26.3213 24.852 26.2359L25.588 29.6599C25.1827 29.7879 24.6813 29.9159 24.084 30.0439C23.508 30.1719 22.836 30.2359 22.068 30.2359Z" fill="white"/>
<path d="M31.581 30.2359C30.1303 30.2359 28.9783 29.7773 28.125 28.8599C27.2717 27.9213 26.845 26.7799 26.845 25.4359C26.845 23.7719 27.549 22.4706 28.957 21.5319C30.365 20.5933 32.637 19.9639 35.773 19.6439C35.7303 18.9399 35.517 18.3853 35.133 17.9799C34.7703 17.5533 34.1517 17.3399 33.277 17.3399C32.6157 17.3399 31.9437 17.4679 31.261 17.7239C30.5783 17.9799 29.853 18.3319 29.085 18.7799L27.389 15.6759C28.3917 15.0573 29.4583 14.5559 30.589 14.1719C31.741 13.7879 32.9357 13.5959 34.173 13.5959C36.1997 13.5959 37.757 14.1826 38.845 15.3559C39.933 16.5293 40.477 18.3319 40.477 20.7639V29.8519H36.637L36.317 28.2199H36.189C35.5277 28.8173 34.813 29.3079 34.045 29.6919C33.2983 30.0546 32.477 30.2359 31.581 30.2359ZM33.181 26.5879C33.7143 26.5879 34.173 26.4706 34.557 26.2359C34.9623 25.9799 35.3677 25.6493 35.773 25.2439V22.4599C34.109 22.6733 32.957 23.0146 32.317 23.4839C31.677 23.9319 31.357 24.4653 31.357 25.0839C31.357 25.5959 31.517 25.9799 31.837 26.2359C32.1783 26.4706 32.6263 26.5879 33.181 26.5879Z" fill="white"/>
<path d="M49.128 30.2359C48.0827 30.2359 47.0053 30.0333 45.896 29.6279C44.808 29.2226 43.8587 28.6893 43.048 28.0279L45.16 25.0839C45.8853 25.6173 46.5787 26.0333 47.24 26.3319C47.9227 26.6093 48.5947 26.7479 49.256 26.7479C49.96 26.7479 50.472 26.6306 50.792 26.3959C51.112 26.1399 51.272 25.8093 51.272 25.4039C51.272 25.0413 51.112 24.7426 50.792 24.5079C50.4933 24.2733 50.0987 24.0599 49.608 23.8679C49.1173 23.6546 48.5947 23.4413 48.04 23.2279C47.4 22.9719 46.76 22.6519 46.12 22.2679C45.5013 21.8839 44.9787 21.3933 44.552 20.7959C44.1253 20.1773 43.912 19.4306 43.912 18.5559C43.912 17.0839 44.4667 15.8893 45.576 14.9719C46.7067 14.0546 48.1787 13.5959 49.992 13.5959C51.208 13.5959 52.2747 13.8093 53.192 14.2359C54.1307 14.6413 54.9307 15.0999 55.592 15.6119L53.48 18.4279C52.9253 18.0013 52.3707 17.6706 51.816 17.4359C51.2613 17.2013 50.7067 17.0839 50.152 17.0839C48.936 17.0839 48.328 17.4999 48.328 18.3319C48.328 18.8439 48.6267 19.2386 49.224 19.5159C49.8427 19.7719 50.5573 20.0493 51.368 20.3479C52.0507 20.5826 52.712 20.8919 53.352 21.2759C54.0133 21.6386 54.5573 22.1293 54.984 22.7479C55.432 23.3453 55.656 24.1346 55.656 25.1159C55.656 26.5453 55.1013 27.7613 53.992 28.7639C52.8827 29.7453 51.2613 30.2359 49.128 30.2359Z" fill="white"/>
<path d="M58.6435 29.8519V7.41992H63.2195V20.2839H63.3475L68.3715 13.9799H73.4915L67.9235 20.5079L73.9075 29.8519H68.8195L65.2355 23.6759L63.2195 25.9479V29.8519H58.6435Z" fill="white"/>
<path d="M79.8623 30.2359C78.4116 30.2359 77.2596 29.7773 76.4062 28.8599C75.5529 27.9213 75.1263 26.7799 75.1263 25.4359C75.1263 23.7719 75.8303 22.4706 77.2383 21.5319C78.6462 20.5933 80.9182 19.9639 84.0542 19.6439C84.0116 18.9399 83.7982 18.3853 83.4142 17.9799C83.0516 17.5533 82.4329 17.3399 81.5583 17.3399C80.8969 17.3399 80.2249 17.4679 79.5423 17.7239C78.8596 17.9799 78.1342 18.3319 77.3662 18.7799L75.6702 15.6759C76.6729 15.0573 77.7396 14.5559 78.8702 14.1719C80.0222 13.7879 81.2169 13.5959 82.4542 13.5959C84.4809 13.5959 86.0383 14.1826 87.1263 15.3559C88.2142 16.5293 88.7582 18.3319 88.7582 20.7639V29.8519H84.9183L84.5983 28.2199H84.4702C83.8089 28.8173 83.0942 29.3079 82.3262 29.6919C81.5796 30.0546 80.7583 30.2359 79.8623 30.2359ZM81.4622 26.5879C81.9956 26.5879 82.4542 26.4706 82.8382 26.2359C83.2436 25.9799 83.6489 25.6493 84.0542 25.2439V22.4599C82.3902 22.6733 81.2383 23.0146 80.5983 23.4839C79.9583 23.9319 79.6383 24.4653 79.6383 25.0839C79.6383 25.5959 79.7982 25.9799 80.1182 26.2359C80.4596 26.4706 80.9076 26.5879 81.4622 26.5879Z" fill="white"/>
<path d="M92.7373 29.8519V13.9799H96.5772L96.8972 15.9959H97.0252C97.7079 15.3559 98.4546 14.8013 99.2653 14.3319C100.097 13.8413 101.047 13.5959 102.113 13.5959C103.841 13.5959 105.089 14.1719 105.857 15.3239C106.647 16.4546 107.041 18.0119 107.041 19.9959V29.8519H102.337V20.6039C102.337 19.4519 102.177 18.6626 101.857 18.2359C101.559 17.8093 101.068 17.5959 100.385 17.5959C99.7879 17.5959 99.2759 17.7346 98.8493 18.0119C98.4226 18.2679 97.9532 18.6413 97.4412 19.1319V29.8519H92.7373Z" fill="white"/>
<path d="M115.05 30.2359C113.599 30.2359 112.447 29.7773 111.594 28.8599C110.74 27.9213 110.314 26.7799 110.314 25.4359C110.314 23.7719 111.018 22.4706 112.426 21.5319C113.834 20.5933 116.106 19.9639 119.242 19.6439C119.199 18.9399 118.986 18.3853 118.602 17.9799C118.239 17.5533 117.62 17.3399 116.746 17.3399C116.084 17.3399 115.412 17.4679 114.73 17.7239C114.047 17.9799 113.322 18.3319 112.554 18.7799L110.858 15.6759C111.86 15.0573 112.927 14.5559 114.058 14.1719C115.21 13.7879 116.404 13.5959 117.642 13.5959C119.668 13.5959 121.226 14.1826 122.314 15.3559C123.402 16.5293 123.946 18.3319 123.946 20.7639V29.8519H120.106L119.786 28.2199H119.658C118.996 28.8173 118.282 29.3079 117.514 29.6919C116.767 30.0546 115.946 30.2359 115.05 30.2359ZM116.65 26.5879C117.183 26.5879 117.642 26.4706 118.026 26.2359C118.431 25.9799 118.836 25.6493 119.242 25.2439V22.4599C117.578 22.6733 116.426 23.0146 115.786 23.4839C115.146 23.9319 114.826 24.4653 114.826 25.0839C114.826 25.5959 114.986 25.9799 115.306 26.2359C115.647 26.4706 116.095 26.5879 116.65 26.5879Z" fill="white"/>
<defs>
<linearGradient id="paint0_linear_19456_1513" x1="61.9729" y1="0" x2="61.9729" y2="40" gradientUnits="userSpaceOnUse">
<stop stop-color="#D51010" offset=""/>
<stop offset="1" stop-color="#A60C0C"/>
</linearGradient>
</defs>
</svg>
