<svg width="233" height="168" viewBox="0 0 233 168" fill="none" xmlns="http://www.w3.org/2000/svg">
<path d="M211.274 0H8.56255C3.83359 0 0 3.83779 0 8.57195V159.428C0 164.162 3.83359 168 8.56255 168H211.274C216.003 168 219.836 164.162 219.836 159.428V8.57195C219.836 3.83779 216.003 0 211.274 0Z" fill="#ECECEC"/>
<path d="M8.56283 1.96973C4.92689 1.96973 1.96777 4.93209 1.96777 8.57202V159.424C1.96777 163.064 4.92689 166.026 8.56283 166.026H211.274C214.91 166.026 217.869 163.064 217.869 159.424V8.57202C217.869 4.93209 214.91 1.96973 211.274 1.96973H8.56283Z" fill="white"/>
<path d="M110.699 1.00439H109.129V167.18H110.699V1.00439Z" fill="#ECECEC"/>
<path d="M100.583 28.0598C101.811 28.0598 102.806 27.0633 102.806 25.8341C102.806 24.6049 101.811 23.6084 100.583 23.6084C99.3548 23.6084 98.3594 24.6049 98.3594 25.8341C98.3594 27.0633 99.3548 28.0598 100.583 28.0598Z" fill="#ECECEC"/>
<path d="M119.25 28.0598C120.478 28.0598 121.473 27.0633 121.473 25.8341C121.473 24.6049 120.478 23.6084 119.25 23.6084C118.022 23.6084 117.026 24.6049 117.026 25.8341C117.026 27.0633 118.022 28.0598 119.25 28.0598Z" fill="#ECECEC"/>
<path d="M100.583 57.1438C101.811 57.1438 102.806 56.1473 102.806 54.9181C102.806 53.6889 101.811 52.6924 100.583 52.6924C99.3548 52.6924 98.3594 53.6889 98.3594 54.9181C98.3594 56.1473 99.3548 57.1438 100.583 57.1438Z" fill="#ECECEC"/>
<path d="M119.25 57.1438C120.478 57.1438 121.473 56.1473 121.473 54.9181C121.473 53.6889 120.478 52.6924 119.25 52.6924C118.022 52.6924 117.026 53.6889 117.026 54.9181C117.026 56.1473 118.022 57.1438 119.25 57.1438Z" fill="#ECECEC"/>
<path d="M100.583 86.2239C101.811 86.2239 102.806 85.2274 102.806 83.9982C102.806 82.7689 101.811 81.7725 100.583 81.7725C99.3548 81.7725 98.3594 82.7689 98.3594 83.9982C98.3594 85.2274 99.3548 86.2239 100.583 86.2239Z" fill="#ECECEC"/>
<path d="M119.25 86.2239C120.478 86.2239 121.473 85.2274 121.473 83.9982C121.473 82.7689 120.478 81.7725 119.25 81.7725C118.022 81.7725 117.026 82.7689 117.026 83.9982C117.026 85.2274 118.022 86.2239 119.25 86.2239Z" fill="#ECECEC"/>
<path d="M100.583 115.308C101.811 115.308 102.806 114.311 102.806 113.082C102.806 111.853 101.811 110.856 100.583 110.856C99.3548 110.856 98.3594 111.853 98.3594 113.082C98.3594 114.311 99.3548 115.308 100.583 115.308Z" fill="#ECECEC"/>
<path d="M119.25 115.308C120.478 115.308 121.473 114.311 121.473 113.082C121.473 111.853 120.478 110.856 119.25 110.856C118.022 110.856 117.026 111.853 117.026 113.082C117.026 114.311 118.022 115.308 119.25 115.308Z" fill="#ECECEC"/>
<path d="M100.583 144.388C101.811 144.388 102.806 143.391 102.806 142.162C102.806 140.933 101.811 139.937 100.583 139.937C99.3548 139.937 98.3594 140.933 98.3594 142.162C98.3594 143.391 99.3548 144.388 100.583 144.388Z" fill="#ECECEC"/>
<path d="M119.25 144.388C120.478 144.388 121.473 143.391 121.473 142.162C121.473 140.933 120.478 139.937 119.25 139.937C118.022 139.937 117.026 140.933 117.026 142.162C117.026 143.391 118.022 144.388 119.25 144.388Z" fill="#ECECEC"/>
<path d="M100.787 24.806L100.374 24.1364C100.476 24.0733 110.644 17.9241 119.474 24.1482L119.022 24.7942C110.617 18.8695 100.882 24.747 100.787 24.806Z" fill="#ECECEC"/>
<path d="M100.787 27.5355L100.374 26.8658C100.476 26.8028 110.644 20.6535 119.474 26.8777L119.022 27.5237C110.617 21.599 100.882 27.4764 100.787 27.5355Z" fill="#ECECEC"/>
<path d="M100.787 54.0155L100.374 53.3458C100.476 53.2828 110.644 47.1335 119.474 53.3576L119.022 54.0037C110.617 48.079 100.882 53.9564 100.787 54.0155Z" fill="#ECECEC"/>
<path d="M100.787 56.7499L100.374 56.0802C100.476 56.0172 110.644 49.8679 119.474 56.092L119.022 56.7381C110.617 50.8133 100.882 56.6908 100.787 56.7499Z" fill="#ECECEC"/>
<path d="M100.787 83.226L100.374 82.5563C100.476 82.4933 110.644 76.344 119.474 82.5681L119.022 83.2141C110.617 77.2894 100.882 83.1669 100.787 83.226Z" fill="#ECECEC"/>
<path d="M100.787 85.9599L100.374 85.2902C100.476 85.2271 110.64 79.0779 119.474 85.302L119.022 85.948C110.617 80.0233 100.882 85.9008 100.787 85.9599Z" fill="#ECECEC"/>
<path d="M100.787 112.436L100.374 111.766C100.476 111.703 110.644 105.554 119.474 111.778L119.022 112.424C110.617 106.503 100.882 112.377 100.787 112.436Z" fill="#ECECEC"/>
<path d="M100.787 115.17L100.374 114.5C100.476 114.437 110.64 108.288 119.474 114.512L119.022 115.158C110.617 109.233 100.882 115.111 100.787 115.17Z" fill="#ECECEC"/>
<path d="M100.787 141.646L100.374 140.976C100.476 140.913 110.644 134.764 119.474 140.988L119.022 141.63C110.617 135.705 100.882 141.583 100.787 141.642V141.646Z" fill="#ECECEC"/>
<path d="M100.787 144.38L100.374 143.71C100.476 143.647 110.644 137.498 119.474 143.722L119.022 144.364C110.617 138.439 100.882 144.317 100.787 144.376V144.38Z" fill="#ECECEC"/>
<path d="M20.4109 29.8993C28.4973 29.5881 36.5916 29.4542 44.6859 29.5015C52.7802 29.5487 60.7407 29.7733 68.7563 30.179C73.3209 30.4075 77.8776 30.6951 82.4343 31.0417C83.1938 31.1008 83.1898 29.9151 82.4343 29.8599C74.3636 29.2494 66.2812 28.82 58.1908 28.5678C50.1005 28.3157 42.136 28.2527 34.1086 28.3591C29.5401 28.4221 24.9716 28.5403 20.407 28.7175C19.6515 28.7451 19.6475 29.9269 20.407 29.8993H20.4109Z" fill="#F25959"/>
<path d="M20.143 110.722C26.5409 110.409 32.9451 110.273 39.3492 110.321C45.7533 110.369 52.0516 110.595 58.3934 111.004C62.0049 111.235 65.6101 111.525 69.2154 111.875C69.8163 111.934 69.8131 110.738 69.2154 110.683C62.8299 110.067 56.4352 109.634 50.0341 109.38C43.6331 109.125 37.3317 109.062 30.9805 109.169C27.366 109.233 23.7514 109.352 20.1399 109.531C19.5422 109.558 19.539 110.75 20.1399 110.722H20.143Z" fill="#F25959"/>
<path d="M20.4109 43.2695C28.4973 42.9582 36.5916 42.8243 44.6859 42.8716C52.7802 42.9189 60.7407 43.1434 68.7563 43.5491C73.3209 43.7776 77.8776 44.0652 82.4343 44.4119C83.1938 44.4709 83.1898 43.2852 82.4343 43.2301C74.3636 42.6195 66.2812 42.1901 58.1908 41.938C50.1005 41.6859 42.136 41.6228 34.1086 41.7292C29.5401 41.7922 24.9716 41.9104 20.407 42.0877C19.6515 42.1152 19.6475 43.297 20.407 43.2695H20.4109Z" fill="#393939"/>
<path d="M139.493 69.3461C147.579 69.0349 155.674 68.901 163.768 68.9482C171.862 68.9955 179.823 69.2201 187.838 69.6258C192.403 69.8543 196.96 70.1419 201.516 70.4885C202.276 70.5476 202.272 69.3619 201.516 69.3067C193.446 68.6961 185.363 68.2667 177.273 68.0146C169.182 67.7625 161.218 67.6995 153.191 67.8058C148.622 67.8689 144.054 67.9871 139.489 68.1643C138.733 68.1919 138.73 69.3737 139.489 69.3461H139.493Z" fill="#F25959"/>
<path d="M139.493 82.7162C147.579 82.405 155.674 82.2711 163.768 82.3184C171.862 82.3656 179.823 82.5902 187.838 82.9959C192.403 83.2244 196.96 83.512 201.516 83.8586C202.276 83.9177 202.272 82.732 201.516 82.6768C193.446 82.0662 185.363 81.6369 177.273 81.3847C169.182 81.1326 161.218 81.0696 153.191 81.176C148.622 81.239 144.054 81.3572 139.489 81.5344C138.733 81.562 138.73 82.7438 139.489 82.7162H139.493Z" fill="#393939"/>
<path d="M20.4109 56.6394C26.9745 56.3834 33.542 56.0919 40.1134 55.9776C45.7326 55.8791 51.3518 55.9697 56.9631 56.2416C60.965 56.4346 64.9629 56.7064 68.9609 57.0058C69.7203 57.0649 69.7164 55.8791 68.9609 55.824C62.413 55.3276 55.8573 54.9219 49.2898 54.7958C43.6707 54.6895 38.0475 54.8116 32.4323 55.0007C28.4265 55.1385 24.4207 55.3001 20.4109 55.4576C19.6554 55.4852 19.6514 56.667 20.4109 56.6394Z" fill="#393939"/>
<path d="M20.4109 70.0093C27.3601 69.7414 34.3132 69.4578 41.2663 69.3553C47.4915 69.2608 53.7206 69.3435 59.9418 69.6272C64.0854 69.8162 68.225 70.0802 72.3646 70.3953C73.1241 70.4544 73.1201 69.2687 72.3646 69.2135C65.4312 68.6896 58.4898 68.2996 51.5406 68.1814C45.3115 68.0711 39.0824 68.1814 32.8573 68.3784C28.7098 68.5084 24.5623 68.6699 20.4148 68.8314C19.6593 68.859 19.6553 70.0408 20.4148 70.0132L20.4109 70.0093Z" fill="#393939"/>
<path d="M20.4109 83.3758C26.7305 83.1315 33.0422 82.7455 39.3579 82.45C44.5757 82.2058 49.7935 82.1231 55.0152 82.2964C58.9266 82.4264 62.8341 82.6706 66.7337 82.9661C67.4931 83.0252 67.4892 81.8394 66.7337 81.7843C60.4377 81.3076 54.1338 80.9728 47.8181 81.0201C42.5885 81.0595 37.3707 81.3628 32.1529 81.6425C28.2415 81.8513 24.3262 82.0404 20.4109 82.194C19.6554 82.2216 19.6514 83.4073 20.4109 83.3758Z" fill="#393939"/>
<path d="M20.4109 96.746C28.4973 96.4348 36.5916 96.3009 44.6859 96.3481C52.7802 96.3954 60.7407 96.62 68.7563 97.0257C73.3209 97.2542 77.8776 97.5418 82.4343 97.8884C83.1938 97.9475 83.1898 96.7618 82.4343 96.7066C74.3636 96.096 66.2812 95.6666 58.1908 95.4145C50.1005 95.1624 42.136 95.0994 34.1086 95.2057C29.5401 95.2688 24.9716 95.387 20.407 95.5642C19.6515 95.5918 19.6475 96.7736 20.407 96.746H20.4109Z" fill="#393939"/>
<path d="M139.493 31.4165C146.442 31.1486 153.395 30.865 160.348 30.7626C166.574 30.668 172.803 30.7508 179.024 31.0344C183.167 31.2235 187.307 31.4874 191.447 31.8026C192.206 31.8616 192.202 30.6759 191.447 30.6208C184.513 30.0968 177.572 29.7068 170.623 29.5887C164.394 29.4784 158.164 29.5887 151.939 29.7856C147.792 29.9156 143.644 30.0771 139.497 30.2386C138.741 30.2662 138.737 31.448 139.497 31.4204L139.493 31.4165Z" fill="#393939"/>
<path d="M139.493 44.783C145.813 44.5388 152.124 44.1527 158.44 43.8573C163.658 43.613 168.876 43.5303 174.097 43.7036C178.009 43.8336 181.916 44.0779 185.816 44.3733C186.575 44.4324 186.571 43.2467 185.816 43.1915C179.52 42.7149 173.216 42.38 166.9 42.4273C161.671 42.4667 156.453 42.77 151.235 43.0497C147.324 43.2585 143.408 43.4476 139.493 43.6012C138.737 43.6288 138.733 44.8145 139.493 44.783Z" fill="#393939"/>
<path d="M139.493 58.1528C147.579 57.8416 155.674 57.7076 163.768 57.7549C171.862 57.8022 179.823 58.0267 187.838 58.4325C192.403 58.6609 196.96 58.9485 201.516 59.2952C202.276 59.3543 202.272 58.1685 201.516 58.1134C193.446 57.5028 185.363 57.0734 177.273 56.8213C169.182 56.5692 161.218 56.5061 153.191 56.6125C148.622 56.6755 144.054 56.7937 139.489 56.971C138.733 56.9985 138.73 58.1803 139.489 58.1528H139.493Z" fill="#393939"/>
<path d="M13.2138 31.0658C13.0954 31.0661 12.98 31.0289 12.8853 30.96L12.8794 30.9557L11.6421 30.0366C11.5848 29.994 11.5367 29.9409 11.5006 29.8803C11.4645 29.8197 11.441 29.7527 11.4315 29.6833C11.422 29.6139 11.4268 29.5433 11.4454 29.4756C11.464 29.408 11.4962 29.3446 11.5401 29.289C11.584 29.2334 11.6388 29.1867 11.7013 29.1517C11.7638 29.1166 11.8328 29.0938 11.9043 29.0846C11.9759 29.0754 12.0486 29.08 12.1183 29.0981C12.1881 29.1162 12.2535 29.1474 12.3108 29.19L13.1122 29.7862L15.006 27.39C15.0499 27.3344 15.1047 27.2877 15.1672 27.2527C15.2297 27.2177 15.2987 27.1949 15.3703 27.1857C15.4419 27.1766 15.5146 27.1812 15.5843 27.1993C15.6541 27.2174 15.7194 27.2486 15.7767 27.2913L15.7649 27.3068L15.777 27.2915C15.8926 27.3776 15.9682 27.5047 15.9872 27.6449C16.0063 27.7851 15.9673 27.9269 15.8787 28.0392L13.6511 30.8577C13.5996 30.9227 13.5334 30.9752 13.4575 31.0113C13.3817 31.0474 13.2983 31.0661 13.2138 31.0658Z" fill="#F25959"/>
<path d="M13.2138 111.822C13.0954 111.822 12.98 111.785 12.8853 111.716L12.8794 111.712L11.6421 110.792C11.5848 110.75 11.5367 110.697 11.5006 110.636C11.4645 110.576 11.441 110.509 11.4315 110.439C11.422 110.37 11.4268 110.299 11.4454 110.232C11.464 110.164 11.4962 110.1 11.5401 110.045C11.584 109.989 11.6388 109.943 11.7013 109.908C11.7638 109.872 11.8328 109.85 11.9043 109.84C11.9759 109.831 12.0486 109.836 12.1183 109.854C12.1881 109.872 12.2535 109.903 12.3108 109.946L13.1122 110.542L15.006 108.146C15.0499 108.09 15.1047 108.044 15.1672 108.009C15.2297 107.974 15.2987 107.951 15.3703 107.942C15.4419 107.932 15.5146 107.937 15.5843 107.955C15.6541 107.973 15.7194 108.004 15.7767 108.047L15.7649 108.063L15.777 108.047C15.8926 108.133 15.9682 108.261 15.9872 108.401C16.0063 108.541 15.9673 108.683 15.8787 108.795L13.6511 111.614C13.5996 111.679 13.5334 111.731 13.4575 111.767C13.3817 111.803 13.2983 111.822 13.2138 111.822Z" fill="#F25959"/>
<path d="M132.838 70.0654C132.719 70.0656 132.604 70.0284 132.509 69.9595L132.503 69.9552L131.266 69.0362C131.209 68.9936 131.161 68.9404 131.125 68.8798C131.088 68.8192 131.065 68.7522 131.056 68.6828C131.046 68.6134 131.051 68.5428 131.069 68.4752C131.088 68.4075 131.12 68.3441 131.164 68.2885C131.208 68.2329 131.263 68.1862 131.325 68.1512C131.388 68.1161 131.457 68.0933 131.528 68.0841C131.6 68.0749 131.673 68.0795 131.742 68.0976C131.812 68.1157 131.877 68.1469 131.935 68.1895L132.736 68.7857L134.63 66.3895C134.674 66.3339 134.729 66.2872 134.791 66.2522C134.854 66.2172 134.923 66.1944 134.994 66.1853C135.066 66.1761 135.139 66.1807 135.208 66.1988C135.278 66.2169 135.343 66.2481 135.401 66.2908L135.389 66.3063L135.401 66.291C135.517 66.3771 135.592 66.5043 135.611 66.6444C135.63 66.7846 135.591 66.9264 135.503 67.0387L133.275 69.8572C133.224 69.9222 133.157 69.9747 133.082 70.0108C133.006 70.0469 132.922 70.0656 132.838 70.0654Z" fill="#F25959"/>
<path d="M148.884 90.3804L227.767 32.4036C228.699 31.7134 230.005 31.933 230.689 32.8742L232.6 35.5252C233.284 36.4664 233.066 37.784 232.134 38.4742L153.267 96.451H153.251L142.793 101L142 99.902L148.884 90.3804Z" fill="#393939"/>
</svg>
