<svg width="24" height="24" viewBox="0 0 24 24" fill="none" xmlns="http://www.w3.org/2000/svg">
<path d="M7.34628 4C6.33295 4 5.4506 4.66964 5.20588 5.62388L3.24127 13.2545C3.19646 13.4252 3.17578 13.5993 3.17578 13.7734V16.8571C3.17578 18.0391 4.16498 19 5.38166 19H18.617C19.8336 19 20.8228 18.0391 20.8228 16.8571V13.7734C20.8228 13.5993 20.8022 13.4252 20.7574 13.2545L18.7927 5.62388C18.548 4.66964 17.6657 4 16.6523 4H7.34628ZM7.34628 6.14286H16.6523L18.3068 12.5714H16.5421C16.125 12.5714 15.7424 12.7991 15.5563 13.1641L15.0634 14.1217C14.8773 14.4833 14.4947 14.7143 14.0777 14.7143H9.9244C9.50735 14.7143 9.12477 14.4866 8.93865 14.1217L8.44577 13.1641C8.25965 12.8025 7.87707 12.5714 7.46002 12.5714H5.69187L7.34628 6.14286Z" fill="white"/>
</svg>
