<svg width="24" height="24" viewBox="0 0 24 24" fill="none" xmlns="http://www.w3.org/2000/svg">
<path d="M5.57143 3C4.15313 3 3 4.15313 3 5.57143V18.4286C3 19.8469 4.15313 21 5.57143 21H18.4286C19.8469 21 21 19.8469 21 18.4286V5.57143C21 4.15313 19.8469 3 18.4286 3H5.57143ZM11.0357 15.5357V12.9643H8.46429C7.92991 12.9643 7.5 12.5344 7.5 12C7.5 11.4656 7.92991 11.0357 8.46429 11.0357H11.0357V8.46429C11.0357 7.92991 11.4656 7.5 12 7.5C12.5344 7.5 12.9643 7.92991 12.9643 8.46429V11.0357H15.5357C16.0701 11.0357 16.5 11.4656 16.5 12C16.5 12.5344 16.0701 12.9643 15.5357 12.9643H12.9643V15.5357C12.9643 16.0701 12.5344 16.5 12 16.5C11.4656 16.5 11.0357 16.0701 11.0357 15.5357Z" fill="white"/>
</svg>
